<?xml version="1.0" encoding="utf-8"?>
<!-- Generator: Adobe Illustrator 26.2.1, SVG Export Plug-In . SVG Version: 6.00 Build 0)  -->
<svg version="1.1" id="Layer_1" xmlns="http://www.w3.org/2000/svg" xmlns:xlink="http://www.w3.org/1999/xlink" x="0px" y="0px"
	 viewBox="0 0 3000 3000" style="enable-background:new 0 0 3000 3000;" xml:space="preserve">
<style type="text/css">
	.st0{fill:#004731;}
	.st1{fill:#FEF5B5;}
	.st2{fill:#FDF5B5;}
	.st3{fill:#FDF4B4;}
	.st4{fill:#FBF3B4;}
	.st5{fill:#FCF3B4;}
	.st6{fill:#FBF4B4;}
	.st7{fill:#F9F2B3;}
	.st8{fill:#F5EEB0;}
	.st9{fill:#004831;}
	.st10{fill:#014932;}
	.st11{fill:#024932;}
	.st12{fill:#044A33;}
</style>
<g>
	<path class="st0" d="M2982.9,1079.47c12.05,25.6,8,48.53,6.88,54.17c-10.24,51.74-33.08,97.87-62.4,141.15
		c-6.15,9.07-12.38,18.1-18.89,26.91c-2.74,3.7-3.99,7.25-3.35,11.93c5.26,38.54,8.78,77.25,10.7,116.1
		c2.28,46.18,2.28,92.37,0.15,138.55c-1.82,39.51-5.54,78.87-10.71,118.1c-11.27,85.52-30.23,169.31-56.88,251.33
		c-49.22,151.43-121.83,290.72-217.8,417.75c-58.9,77.95-125.25,148.98-198.92,213.21c-81.74,71.27-170.46,132.38-266.18,183.28
		c-114.47,60.87-235.06,105.21-361.7,132.97c-74.43,16.32-149.69,26.61-225.84,30.66c-73.83,3.93-147.52,2.59-221.04-4.91
		c-145.47-14.85-285.46-51.16-419.67-109.26c-129.24-55.95-247.62-129.48-354.97-220.74c-114.61-97.43-211.29-210.22-290.11-338.34
		c-20.72-33.69-39.98-68.19-57.77-103.5c-1.96-3.9-3.77-7.1-8.75-8.54c-49.25-14.3-88.01-43.92-120.06-83.14
		c-23.2-28.39-42.69-59.27-60.18-91.39c-13.5-24.8-20.06-51.98-24.36-79.62c-7.93-51-2.1-101.29,8.78-151.3
		c11.08-50.88,28.43-99.51,51.4-146.18c2.14-4.34,2.88-8.59,2.67-13.41c-3.16-71.51-1.07-142.84,6.41-214.06
		c11.92-113.54,37.32-223.96,75.92-331.35c32.92-91.57,74.93-178.78,125.85-261.73c34.83-56.73,73.4-110.77,115.84-162.02
		c48.85-58.98,102.16-113.63,159.89-164.01c81.97-71.53,170.93-132.84,266.98-183.87c112.98-60.03,231.93-103.95,356.82-131.79
		C1293.2,93.78,1396,82.5,1536.89,82.49c187.98,0.67,400.96,51.12,601.88,152.03c102.6,51.54,197.41,114.94,284.5,189.76
		c120.81,103.8,221.36,224.58,301.65,362.14c40.27,68.99,74.47,140.91,102.3,215.83c0.23,0.62,0.48,1.24,0.72,1.86
		c3.42,8.83,3.46,8.97,12.66,6.79c22.27-5.29,44.19-3.73,65.81,3.28c12.61,4.09,22.79,12.14,32.35,20.95
		c6.83,6.29,13.57,12.67,20.54,18.82"/>
	<path class="st1" d="M834.25,2035.04c1.41-48.57,11.19-90.12,25.45-130.74c21.8-62.06,52.53-119.68,87.66-175.07
		c53.02-83.6,114.85-160.36,181.9-232.99c85.17-92.27,177.35-176.9,277.68-252.49c62.7-47.24,127.88-90.63,198.69-124.97
		c39.8-19.31,80.65-35.89,124.02-45.54c12-2.67,24.11-4.59,36.41-5.41c6.2-0.42,11.69,0.98,17.22,3.69
		c19.85,9.7,35.82,23.81,48.82,41.56c15.09,20.61,19.22,42.88,12.9,67.84c-7.59,29.96-20.29,57.52-36.05,83.83
		c-25.37,42.36-56.21,80.6-89.33,117.05c-76.9,84.62-162.91,159.27-252.49,229.96c-106.23,83.83-216.72,161.56-332.77,231.26
		c-29.03,17.43-58.49,34.12-89.19,48.52c-2.76,1.3-5.36,2.63-6.76,5.54c-12.72,26.49-23.22,53.63-24.62,83.45
		c-0.06,1.33-0.1,2.67,0,3.99c0.47,6.11,2.25,8.11,8.06,9.67c3.67,0.99,7.19,0.51,10.82-0.26c16.71-3.53,32.1-10.64,47.52-17.57
		c47.27-21.25,92.78-45.98,138.32-70.62c81.74-44.24,163.49-88.49,245.34-132.54c8.98-4.83,16.2-11.03,22.52-19.02
		c35.57-44.9,74.18-86.95,118.17-123.83c15.55-13.04,32.06-24.67,49.83-34.63c21.23-11.9,42.15-12.23,63.63-1.06
		c10.66,5.54,20.78,11.78,29.89,19.64c4.3,3.7,8.28,7.72,11.63,12.28c6.35,8.65,6.38,11.85-0.17,20.39
		c-8.51,11.09-18.21,21.14-27.93,31.16c-24.29,25.05-48.93,49.78-72.9,75.14c-23.97,25.36-47.14,51.46-64.9,81.79
		c-5.22,8.92-9.57,18.21-11.76,28.4c-0.28,1.3-0.79,2.56-0.91,3.87c-0.54,5.97-1.67,12.3,4.28,16.38c6,4.12,11.76,1.21,16.63-2.24
		c14.1-9.97,28.06-20.16,41.76-30.67c65.11-49.94,130.09-100.06,195.17-150.04c25.22-19.37,45.84-43.29,66.77-66.92
		c8.81-9.94,17.16-20.31,26.84-29.46c2.17-2.05,4.37-4.07,6.66-5.99c18.25-15.28,37.52-18.4,58.76-5.81
		c12.65,7.5,24.72,15.59,34.95,26.2c4.16,4.31,8.02,8.89,10.65,14.34c3.53,7.31,2.86,13.82-2.83,20.13
		c-31.57,35.05-63.12,70.13-94.39,105.46c-34.35,38.8-68.74,77.57-101.21,118c-5.85,7.29-10.94,15.04-14.98,23.45
		c-1.42,2.96-2.7,6.15-3.22,9.36c-0.95,5.84,2.82,10.43,8.75,11c5.85,0.56,10.99-1.6,16.03-4.44
		c36.19-20.3,72.45-40.49,108.68-60.73c44.63-24.94,89.2-49.98,133.91-74.78c6.57-3.65,11.54-8.26,15.72-14.6
		c57.53-87.16,120.83-170.03,187.71-250.18c65.62-78.64,134.52-154.28,207.75-225.9c61.34-60,125.07-117.27,195.25-166.94
		c34.21-24.22,69.67-46.37,108.77-61.99c20.47-8.18,41.45-14.01,63.89-13.34c14.74,0.44,30.22,6.19,36.99,13.53
		c7.91,6.78,15.25,13.84,20.93,21.3c12.67,12.87,23.64,32.34,17.86,54.61c-9.95,38.38-27.46,73.26-48.51,106.5
		c-27.11,42.8-59.33,81.64-93.49,118.92c-49.23,53.72-102.44,103.37-156.09,152.57c-29.64,27.18-59.16,54.47-88.01,82.49
		c-3.34,3.24-6.87,6.39-8.61,10.84c-2.41,6.14-0.29,10.53,6.09,12.17c3.18,0.82,6.56,1.03,9.87,1.17
		c40.17,1.71,80.35,3.35,120.53,5.04c24.24,1.02,48.47,2.08,72.71,3.2c7.14,0.33,7.08,0.46,6.33,7.41
		c-1.04,9.71-4.37,18.69-8.39,27.49c-9.99,21.85-24.17,40.42-43.38,54.95c-12.25,9.27-25.78,14.27-41.56,14.12
		c-33.23-0.3-66.47,0.4-99.71,0.39c-8.37,0-16.51,1.53-24.75,2.29c-1.63,0.15-3.25,0.73-4.79,1.32c-7.06,2.68-9.26,7.46-5.63,14.08
		c14.55,26.56,12.74,53.56,2.22,80.66c-11.24,28.96-29.86,53.16-50.5,75.89c-41.16,45.33-89.17,82.51-140.04,116.12
		c-66.71,44.07-136.88,81.47-212.71,107.51c-25.79,8.86-52.05,15.64-79.46,17.76c-14.74,1.14-26.68-3.38-37.11-13.28
		c-7.27-6.9-12.77-15.26-19.19-22.86c-26.97-31.92-28.17-68.08-18.34-106.22c2.9-11.25,6.55-22.27,10.42-33.23
		c1.53-4.34,6.12-9.63,0.76-13.58c-4.7-3.47-8.51,1.71-12.19,4.15c-25.47,16.87-50.08,35.04-76.25,50.85
		c-48.12,29.08-97.9,54.73-151.52,72.33c-12.34,4.05-24.93,6.92-37.86,8.32c-10.74,1.16-19.33-1.63-25.91-10.99
		c-7.63-10.85-16.6-20.75-23.15-32.39c-8.94-15.89-11.23-31.96-4.12-49.54c9.34-23.1,19.74-45.7,29.94-68.41
		c1.5-3.33,3.32-6.56,3.79-10.23c1.02-7.94-3.7-11.97-11.46-9.8c-6.23,1.75-11.22,5.68-16.15,9.61
		c-45.45,36.33-93,69.71-142.38,100.46c-28.75,17.91-58.05,34.87-89.61,47.52c-8.33,3.34-16.85,6.13-25.64,7.98
		c-10.65,2.24-20.4,0.32-29.12-6.42c-14.26-11.03-24.97-24.68-31.1-41.75c-3.62-10.09-2.04-20.4-0.77-30.57
		c1.57-12.53,4.58-24.79,8.6-36.79c0.74-2.2,1.72-4.43,1.87-6.7c0.24-3.7-2-5.46-5.63-5.15c-2.77,0.23-4.79,2.13-7.01,3.57
		c-14.2,9.23-28.6,18.16-42.57,27.73c-43.72,29.94-90.64,54.01-138.69,75.98c-53.48,24.46-107.97,46.31-164.95,61.39
		c-28.31,7.49-56.91,13.04-86.37,13.44c-30.99,0.42-53.39-13.68-68.62-39.88C839.05,2075.23,833.03,2053.36,834.25,2035.04z"/>
	<path class="st1" d="M1577.78,1572.83c12.21-10.71,22.6-19.74,32.9-28.88c64.66-57.38,126.76-117.27,180.61-185.19
		c22.93-28.92,44.14-59.01,62.03-91.39c17.21-31.15,28.44-64.33,33.68-99.44c3.87-25.94-4.73-49.14-18.07-70.84
		c-13.46-21.89-31.81-38.78-53.1-53.07c-23.35-15.67-48.07-18.32-75.15-13.13c-62.89,12.06-121.55,35.29-177.93,64.95
		c-63.97,33.65-123.43,74.25-181.21,117.45c-5.55,4.15-11.11,8.29-16.91,12.62c-1.75-3.58,0.18-6.32,0.98-8.8
		c9.64-29.76,7.76-59.33,0.7-89.39c-8.03-34.18-22.29-65.14-42.6-93.61c-16.01-22.44-31.6-45.2-50.25-65.58
		c-19.45-21.26-41.81-37.48-71.23-42.64c-16.11-2.82-32.27-3.94-48.47-5.26c-4.82-0.39-9.66-0.49-14.48-0.72
		c-0.18-0.68-0.37-1.36-0.55-2.04c6.35-3.09,12.46-6.94,19.11-9.1c8.89-2.88,10.67-8.32,10.58-17.08
		c-0.47-43.53-0.21-87.08-0.21-130.62c0-2.33-0.05-4.65-0.01-6.98c0.06-2.92-0.31-5.04-4.18-5.14c-4.34-0.11-7.69-2.12-7.98-7.13
		c-0.25-4.34,2.19-6.39,5.97-8.03c4.72-2.05,5.03-4.09,0.65-7.37c-6.51-4.88-6.43-11.28-5-17.93c1.06-4.94,9.21-9.76,15.8-9.78
		c24.92-0.08,49.85-0.06,74.78-0.01c4.77,0.01,13.52,6.2,14.79,10.98c1.49,5.63,1.43,10.89-4.23,15.09
		c-4.62,3.42-3.88,5.99,1.81,8.73c3.18,1.53,5.95,3.22,5.96,7.14c0.01,3.86-2.48,6.14-5.81,7.26c-3.16,1.07-4.83,2.46-4.82,6.22
		c0.14,34.51,0.08,69.03,0.08,103.35c3.47,1.64,5.55-0.68,7.74-1.81c41.91-21.58,83.74-43.33,125.7-64.81
		c5.01-2.56,7.31-5.31,7.24-11.33c-0.35-30.91-0.14-61.82-0.18-92.73c-0.01-7.38-0.1-7.56-7.28-8.05c-3.32-0.22-5.7-0.76-6.6-4.48
		c-0.45-1.87-1.6-3.69-2.82-5.22c-2.65-3.31-6.46-5.97-5.24-11.1c1.41-5.93,3.77-11.36,8.56-15.36c2.03-1.7,4.32-3.08,6.5-4.61
		c24.5-17.13,48.93-34.35,73.56-51.29c4.55-3.13,7.15-6.42,6.49-12.14c-0.39-3.32,0.46-6.75,2.34-9.54c3.05-4.52,3.19-9.3,1.96-14.8
		c16.52-4.2,32.89-3.61,49.31-1.14c1.69,0.25,3.57,0.79,3.15,2.94c-1.26,6.36,1.56,11.64,4.05,17.07c0.4,0.86,0.58,2.01,0.39,2.93
		c-1.79,8.89,4.04,12.88,10.26,17.16c24.35,16.75,48.46,33.86,72.8,50.64c4.55,3.13,7.97,6.86,10.27,11.81
		c2.72,5.85,3.92,11.38-2.14,16.04c-0.76,0.59-1.56,1.47-1.78,2.36c-1.95,8.02-7.73,9.69-14.67,8.87c-1.67,2.42-1.17,4.82-1.17,7.1
		c-0.03,31.24,0.04,62.48-0.09,93.73c-0.02,4.64,0.61,7.94,5.4,10.39c43.45,22.21,86.77,44.69,130.13,67.08
		c1.16,0.6,2.28,1.39,3.84,0.71c1.49-2.66,0.72-5.67,0.73-8.54c0.07-30.24,0.04-60.49,0.05-90.73c0-4.9,0.65-9.16-5.85-11.86
		c-6.76-2.81-6.04-8.92,0.43-12.74c2.01-1.19,5.39-0.34,5.49-4.48c0.08-3.41-2.31-4.31-4.07-6.17c-5.42-5.72-4.53-12.24,0.76-18.47
		c4.29-5.06,9.02-6.44,15.36-6.36c23.59,0.31,47.19,0.01,70.79,0.17c11.21,0.08,18.02,8.12,16.4,18.66
		c-0.6,3.86-2.81,6.48-5.65,9.02c-3.98,3.55-3.82,5.35,1.03,7.5c3.97,1.76,5.8,4.17,5.45,8.35c-0.38,4.49-3.47,6.54-7.38,6.6
		c-5,0.07-4.98,3.01-4.98,6.57c0.04,47.53,0.09,95.06-0.08,142.58c-0.02,4.46,1.82,6.48,5.5,8.2
		c23.14,10.85,46.16,21.96,69.33,32.75c9.21,4.29,19.44,3.74,29.23,5.02c51.96,6.79,103.96,13.26,155.95,19.81
		c8.22,1.04,16.45,2.08,24.71,2.77c4.34,0.36,7.33,1.67,6.41,6.53c-1.74,9.18,3.43,12.24,11.04,15.31
		c72.94,29.45,145.71,59.31,218.54,89.05c9.19,3.75,9.19,3.76,9.21,13.47c0.01,4.65-0.17,9.31,0.05,13.96
		c0.19,4.11-1.14,5.85-5.58,6.09c-11.83,0.64-11.82,0.86-11.83,12.51c0,1.99-0.18,4.01,0.03,5.98c0.48,4.56-1,7.01-6.01,6.34
		c-3.67-0.5-4.51,1.68-4.41,4.8c0.09,2.66,0,5.32,0,7.98c0,84.75-0.06,169.5,0.12,254.26c0.01,6.37-1.61,11.27-5.88,16.03
		c-42.72,47.73-83.47,97.12-122.95,147.55c-3.65,4.66-7.27,6.54-13.17,6.52c-48.19-0.22-96.38-0.18-144.57-0.05
		c-5.19,0.01-9.54-1.03-13.76-4.25c-16.14-12.31-34.33-20.42-54.41-23.15c-18.41-2.5-35.48,2.99-51.33,12.13
		c-5.73,3.3-11.11,7.32-16.22,11.53c-3.32,2.73-6.66,3.74-10.87,3.73c-45.53-0.11-91.06-0.12-136.59,0.02
		c-4.25,0.01-7.65-1.18-11.02-3.56c-17.47-12.31-37.31-18.75-58.09-22.27c-17.35-2.94-33.52,2.9-49.42,8.73
		c-9.03,3.31-17.41,8.22-25.41,13.61c-3.75,2.53-7.6,3.59-12.11,3.47C1599.18,1572.66,1589.68,1572.83,1577.78,1572.83z"/>
	<path class="st1" d="M1110.24,958.52c23.73,0.78,51.26,2,78.7,4.96c18.71,2.02,34.11,10.61,47.01,23.81
		c29.43,30.11,53.61,64.16,74.24,100.77c4.73,8.39,8.06,17.45,11.47,26.47c17.75,46.96,13.82,91.5-13.08,134.34
		c-19.74,31.43-42.97,59.92-68.99,86.15c-46.99,47.38-98.75,88.8-156.32,122.75c-17.17,10.13-34.9,19.16-53.61,26.18
		c-14.84,5.57-29.68,8.14-45.8,5.4c-23.93-4.06-47.79-8.01-70.59-16.64c-10.59-4.01-20.83-8.79-29.59-16.16
		c-15.8-13.28-17.25-28.48-4.15-44.22c4.02-4.84,8.18-9.61,13.78-12.82c51.61-29.66,97.36-66.94,140.03-108.14
		c52.25-50.44,99.31-105.39,141.53-164.48c2.31-3.23,4.61-6.55,6.34-10.11c4.48-9.21,1.67-16.05-8.06-19.65
		c-6.28-2.32-12.88-2.99-19.59-2.92c-38.04,0.4-75.46,5.61-112.39,14.56c-69.26,16.77-133.88,44.98-195.68,79.96
		c-87.75,49.67-167.13,110.65-240.87,179.18c-79.13,73.54-150.11,154.24-212.43,242.48c-53.03,75.09-99.2,154.04-132.85,239.89
		c-5.2,13.26-10.96,26.36-13.76,40.47c-0.79,3.97-1.05,7.94-0.69,11.9c1.04,11.27,6.84,16.72,18.27,16.63
		c14.36-0.11,28.34-3.08,42.19-6.7c32.27-8.43,62.76-21.49,92.64-36.03c70.61-34.37,137.14-75.72,202.23-119.44
		c35.57-23.89,70.84-48.23,104.17-75.24c8.77-7.11,18-13.7,28.1-18.82c17.79-9.02,30.89-5.08,41.23,12.2
		c8.03,13.42,11.36,28.33,12.74,43.62c1.93,21.46-0.81,41.89-10.3,61.97C721.99,1895.44,639,1982.7,528.46,2044.07
		c-44.1,24.48-90.81,42.26-140.38,52.05c-40.39,7.97-80.98,10.08-121.85,3.53c-47.11-7.56-86.26-29.62-118.4-64.45
		c-28.6-31-51.09-66.32-69.91-103.81c-19.49-38.84-22.19-80.89-19.95-123.5c4.54-86.42,33.08-165.46,74.19-240.58
		c36.72-67.11,82.15-128.01,133.94-184.06c141.71-153.35,309.74-269.16,502.17-349.71c66.61-27.88,135.28-49.29,206.38-62.45
		C1018.18,963.03,1062.08,958.57,1110.24,958.52z"/>
	<path class="st1" d="M129.94,1493.57c-2.08-2.66-1.44-4.7-1.47-6.58c-0.7-56.93,4.04-113.47,11.48-169.86
		c8.4-63.62,21.34-126.29,38.7-188.03c37.79-134.37,94.69-260.13,170.74-377.22c35.51-54.68,74.63-106.64,117.62-155.62
		c56.01-63.81,117.31-122.08,184.08-174.63c96.13-75.66,200.49-137.32,313.02-185.13c85.55-36.35,173.95-63.57,265.12-81.83
		c49.83-9.98,100.03-17.32,150.65-21.74c73.64-6.43,147.41-6.96,221.08-1.56c149.23,10.93,292.99,45.44,430.97,103.44
		c106.19,44.63,205.21,101.81,297.07,171.38c69.86,52.91,134.06,111.98,192.54,177.21c92.69,103.38,168.04,218.21,225.93,344.47
		c12.88,28.1,24.82,56.59,35.82,85.48c1.06,2.79,1.9,5.69,3.12,8.4c1.56,3.44,0.75,5.29-2.81,6.9c-9.98,4.51-19.95,9.1-29.58,14.29
		c-4.83,2.6-6.23,0.82-7.82-3.34c-6.18-16.12-12.34-32.26-18.94-48.21c-51.45-124.34-120.3-238.18-206.4-341.57
		c-92.67-111.29-200.67-204.95-323.96-280.89c-128.13-78.92-265.76-134.46-412.79-166.7c-109.3-23.97-219.84-33.93-331.64-29.82
		c-208.76,7.69-404.96,61.54-588.47,161.21C732.57,405,616.65,496.39,516.17,607.16c-98.84,108.96-177.44,231.06-235.85,366.15
		c-41.45,95.86-71.04,195.27-89.16,298.07c-8.89,50.41-14.88,101.22-17.41,152.38c-0.31,6.32-2.31,11.35-6.1,16.3
		C154.56,1457.22,142.35,1475.02,129.94,1493.57z"/>
	<path class="st1" d="M2864.84,1359.64c68.31,647.12-334.1,1275.29-990.26,1460.47C1209.53,3007.79,565,2675.58,288.62,2144.11
		c1.66-2.33,4.12-1.19,6.2-1.19c11.3,0.01,22.64,0.79,33.88,0.01c6.92-0.48,10,2.28,13.02,7.78
		c20.51,37.28,43.18,73.23,67.54,108.11c116.65,167.04,263.77,300.63,441.3,400.49c121.35,68.26,250.53,115.83,386.98,143.41
		c57.02,11.52,114.59,19.06,172.67,23.04c56.14,3.85,112.26,4.27,168.36,0.86c121.01-7.35,239.01-30.34,353.61-70.07
		c205.31-71.19,383.23-185.24,532.6-343.11c152.98-161.69,258.42-350.39,317.31-565.03c23.36-85.14,37.65-171.84,43.49-259.96
		c3.9-58.8,4.32-117.56-0.18-176.32c-0.58-7.55,1.32-13.05,6.79-18.5c9.85-9.83,18.79-20.58,28.13-30.93
		C2861.38,1361.53,2861.99,1359.79,2864.84,1359.64z"/>
	<path class="st1" d="M1118.72,1135.69c-10.9,15.09-21.55,27.72-32.2,40.32c-30.04,35.56-61.81,69.49-96.05,101.05
		c-35.49,32.71-72.83,62.98-115.02,86.8c-16.76,9.46-29.49,23.16-37.51,40.2c-12.63,26.83-7.47,54.6,13.22,76.25
		c11.39,11.91,25.29,20.39,40.56,26.52c24.8,9.95,50.85,15.13,76.98,19.95c7.18,1.32,14.42,2.3,21.65,3.31
		c6.62,0.93,13.18,0.91,19.8-0.54c15.2-3.33,30.37-6.7,46.05-11.51c-2.98,3.51-6.01,6.97-8.94,10.52
		c-10.56,12.79-21.18,25.53-31.56,38.46c-3.09,3.84-6.12,5.96-11.54,5.95c-110.34-0.2-220.68-0.15-331.03-0.16
		c-3.86,0-8.48,1.02-7.83-5.57c0.21-2.08-1.41-2.89-3.25-2.74c-4,0.33-5.14-1.68-5.05-5.35c0.3-12.29,0.42-24.59,0.63-36.89
		c0.04-2.36,0.03-5.1,3.09-5.39c6.25-0.6,5.94-4.85,5.94-9.37c-0.06-37.89-0.04-75.78-0.04-113.67c0-7.31,0.16-14.63-0.05-21.94
		c-0.12-4.28,1.11-7.31,4.54-10.28c90.2-78.11,188.02-144.16,299.28-188.84c39.84-16,80.71-28.58,123.45-34.27
		C1101.39,1137.51,1108.98,1136.79,1118.72,1135.69z"/>
	<path class="st1" d="M1606.51,299.75c2.04-0.96,1.66-2.76,1.75-4.34c1.37-22.2,2.72-44.39,4.07-66.59
		c0.42-6.88,0.43-7.08,7.45-6.76c9.61,0.44,19.2,1.49,28.81,1.73c5.1,0.13,6.81,1.54,6.4,6.95c-1.33,17.54-2.01,35.13-3.1,52.69
		c-1.8,29.15-3.72,58.3-5.59,87.45c-0.56,8.67-0.55,8.64-9.25,8.07c-6.96-0.46-13.92-1.19-20.87-1.13
		c-5.94,0.05-9.65-2.32-12.92-7.2c-16.06-23.99-32.42-47.78-48.69-71.63c-1.86-2.72-3.81-5.38-6.62-9.32
		c-1.86,5.74-1.26,10.58-1.7,15.24c-0.46,4.96-0.92,9.92-1.22,14.89c-0.92,15.24-1.73,30.49-2.67,45.73
		c-0.43,6.99-0.54,7.11-7.6,6.78c-9.62-0.46-19.23-1.01-28.82-1.77c-6.84-0.54-6.97-0.73-6.56-7.79c1.3-21.87,2.67-43.73,4.1-65.59
		c1.65-25.17,3.36-50.34,5.1-75.5c0.48-6.96,0.58-6.89,7.66-6.38c7.94,0.56,15.9,1.39,23.84,1.33c6.31-0.05,10.21,2.17,13.77,7.54
		c15.2,22.96,30.91,45.58,46.49,68.29C1602.15,295.06,1603.28,298.36,1606.51,299.75z"/>
	<path class="st1" d="M1741.14,314.67c-4.89,21.27-9.75,42.55-14.69,63.82c-1.12,4.81-0.49,11.28-4.16,13.88
		c-3.79,2.68-9.4-0.91-14.17-1.95c-6.48-1.42-12.96-2.88-19.42-4.4c-7.41-1.75-7.53-1.83-5.85-9.27
		c5.34-23.63,10.76-47.23,16.18-70.84c5.04-21.99,10.11-43.97,15.19-65.95c1.64-7.08,1.7-7.17,9.16-5.55
		c8.1,1.76,16.09,4.2,24.27,5.42c5.71,0.85,8.52,3.64,10.82,8.64c11.75,25.65,23.8,51.16,35.83,76.68c1.24,2.62,1.7,5.77,5.25,8.13
		c3.56-15.35,7.04-30.3,10.48-45.25c2.09-9.05,4.26-18.09,6.1-27.19c0.78-3.85,2.59-4.91,6.26-4c9.34,2.29,18.73,4.38,28.09,6.64
		c8.69,2.09,8.69,2.14,6.61,11.24c-2.37,10.35-4.76,20.69-7.14,31.04c-7.87,34.28-15.96,68.51-23.48,102.87
		c-2.02,9.24-3.25,8.19-10.53,6.62c-6.49-1.4-12.86-3.55-19.4-4.4c-6.73-0.87-10.26-4.15-13.01-10.28
		c-10.6-23.62-21.76-46.98-32.72-70.44c-2.49-5.34-5-10.67-7.5-16C1742.58,314.31,1741.86,314.49,1741.14,314.67z"/>
	<path class="st1" d="M2165.49,488.06c2.67,4.21,4.4,6.97,6.16,9.71c15.88,24.76-5.93,56.99-31.46,57.78
		c-15.25,0.47-28.63-4.88-41.31-12.42c-17.39-10.32-34.59-20.97-51.87-31.49c-5.63-3.43-11.25-6.88-17.41-10.66
		c26.94-44.41,53.55-88.27,79.98-131.85c2.74-0.19,4.31,1.1,5.98,2.11c21.26,12.89,42.54,25.76,63.76,38.71
		c8.56,5.22,16.32,11.39,21.98,19.85c7.98,11.94,9.99,24.51,3.26,37.59c-6.75,13.11-17.26,20.74-32.53,20.66
		C2170.37,488.06,2168.72,488.06,2165.49,488.06z"/>
	<path class="st1" d="M784.91,432.89c12.17-8.51,23.5-16.44,35.37-24.75c4.56,6.45,8.77,12.37,12.94,18.32
		c23.83,33.96,47.65,67.92,71.45,101.89c4.98,7.1,4.95,7.16-1.9,11.99c-8.14,5.74-16.38,11.33-24.41,17.21
		c-3.18,2.33-5.01,1.89-7.2-1.31c-8.61-12.6-17.44-25.06-26.19-37.57c-4.7-6.72-4.32-6.96-11.33-1.98
		c-11.09,7.88-22.22,15.72-33.49,23.35c-3.93,2.66-4.23,4.89-1.42,8.75c9.17,12.61,17.85,25.58,27.03,38.19
		c2.84,3.9,2.47,5.97-1.56,8.59c-8.61,5.62-17.12,11.45-25.26,17.72c-4.55,3.5-6.6,1.83-9.29-2.08
		c-11.47-16.68-23.18-33.2-34.79-49.79c-15.23-21.75-30.43-43.52-45.7-65.24c-4.4-6.26-6.36-5.97,2.38-11.92
		c7.96-5.41,15.88-10.89,23.61-16.61c3.47-2.56,5.46-2.24,7.93,1.38c8.59,12.62,17.61,24.94,26.18,37.58
		c2.7,3.98,4.53,5.49,9.14,2.01c11.13-8.38,22.77-16.07,34.14-24.13c5.54-3.93,5.54-4.09,1.53-9.87
		C804.6,461.01,795.08,447.44,784.91,432.89z"/>
	<path class="st1" d="M963.41,465.47c20.93-10.41,41.12-20.46,61.31-30.51c1.78-0.89,3.52-1.86,5.31-2.74
		c7.7-3.77,7.73-3.78,11.64,3.94c3.14,6.22,6.25,12.46,9.31,18.72c3.16,6.46,3.17,6.55-3.63,9.98c-14.52,7.31-29.1,14.53-43.64,21.8
		c-18.7,9.34-37.38,18.73-56.1,28.03c-6.15,3.06-6.31,3.01-9.42-3.18c-21.1-42.14-42.17-84.3-63.2-126.47
		c-3.15-6.33-3.11-6.5,2.93-9.53c33.24-16.65,66.55-33.16,99.72-49.95c4.6-2.33,6.89-1.93,9.08,2.91
		c3.97,8.76,8.53,17.26,13.45,27.08c-24.33,12.23-48.45,24.35-72.33,36.35c-0.08,1.13-0.35,1.82-0.13,2.28
		c2.82,5.97,4.17,14.42,9.49,16.92c5.74,2.7,11.82-4.09,17.64-6.88c16.14-7.75,32.1-15.87,48.75-24.15
		c4.62,9.17,8.98,18.07,13.59,26.84c2.33,4.43-1.25,5.12-3.72,6.36c-15.13,7.62-30.35,15.03-45.43,22.75
		c-4.97,2.54-12.63,3.46-14.09,8.33c-1.57,5.25,4.27,10.53,6.58,15.93C961.15,461.8,962.11,463.17,963.41,465.47z"/>
	<path class="st1" d="M1301.07,386.24c6.32-20.14,12.19-38.76,17.99-57.4c10.06-32.28,20.08-64.57,30.12-96.85
		c2.64-8.48,2.65-8.47,11.45-9.28c7.92-0.73,15.91-1.06,23.75-2.32c6.58-1.06,10.06,0.97,13.25,7
		c17.54,33.11,35.58,65.95,53.47,98.88c6.33,11.66,12.74,23.27,19,34.96c1.2,2.23,3.33,4.23,2.44,8.06
		c-13.5,1.37-27.22,2.76-40.93,4.18c-2.76,0.29-4.19-1.11-5.35-3.42c-2.83-5.63-6.02-11.08-8.74-16.76
		c-1.9-3.96-4.09-6.08-9.06-5.51c-16.15,1.83-32.35,3.21-48.55,4.61c-3.92,0.34-5.8,2.18-6.75,5.94c-1.62,6.42-3.84,12.7-5.49,19.11
		c-0.77,3.01-2.11,4.41-5.32,4.7C1329.18,383.3,1316.01,384.72,1301.07,386.24z"/>
	<path class="st1" d="M1849.01,421.5c2.13-1.6,4.49-2.97,6.36-4.83c35.88-35.55,71.8-71.06,107.41-106.88
		c4.74-4.76,8.42-6.01,14.55-2.94c8.28,4.15,17.03,7.42,25.7,10.75c3.27,1.25,4.67,2.98,4.7,6.52c0.52,54.16,1.14,108.32,1.7,162.49
		c0.01,0.54-0.54,1.08-1.24,2.38c-12.76-5.18-25.61-10.38-38.46-15.61c-3.1-1.26-3.05-3.99-3.04-6.7
		c0.01-5.98-0.23-11.97,0.07-17.94c0.22-4.51-1.02-7.25-5.57-9.03c-14.84-5.77-29.57-11.86-44.23-18.08
		c-3.89-1.65-6.62-1.6-9.56,1.82c-4.1,4.78-8.79,9.06-13.11,13.66c-2.22,2.36-4.36,3.7-7.81,2.23
		c-12.16-5.18-24.41-10.15-36.62-15.2C1849.58,423.26,1849.29,422.38,1849.01,421.5z"/>
	<path class="st1" d="M2338.94,545.38c12.47-0.16,22.53,3.29,31.49,9.25c22.68,15.09,38.42,35.41,45.01,62.21
		c1.81,7.35,1.68,7.47-5.74,9.11c-7.78,1.72-15.63,3.08-23.38,4.92c-4.46,1.06-6.68-0.05-7.78-4.73
		c-2.47-10.45-6.92-20.06-13.57-28.57c-3.08-3.94-6.35-7.7-10.71-10.29c-5.15-3.05-9.51-2.99-12.88,0.03
		c-3.86,3.47-3.68,7.69-1.75,11.85c1.95,4.2,4.28,8.24,6.68,12.2c4.64,7.67,9.57,15.15,14.11,22.87c2.18,3.7,3.94,7.68,5.56,11.67
		c6.48,15.98,6.05,31.1-5.93,44.66c-13.07,14.79-29.23,20.35-48.43,15.5c-16.73-4.22-29.56-14.73-40.88-27.21
		c-13.9-15.33-23.31-33.01-27.2-53.45c-1.5-7.9-1.35-8.23,6.84-9.37c7.55-1.06,15.18-1.59,22.74-2.64c4.7-0.66,6.95,0.2,7.99,5.67
		c3.1,16.36,10.47,30.7,22.87,42.16c2.95,2.72,6.03,5.25,10.03,6.24c8.2,2.03,13.91-3.81,11.45-11.89
		c-1.76-5.76-5.02-10.81-8.27-15.84c-6.84-10.6-13.95-21.06-18.65-32.86C2286.46,576.46,2307.63,545.37,2338.94,545.38z"/>
	<path class="st2" d="M1206.44,412.43c-50.67,0.18-85.72-36.24-85.12-82.83c0.48-37.43,25.63-68.28,62.97-77.14
		c23.39-5.54,45.5-3.24,65.49,11.19c5.22,3.77,5.26,3.89,1.24,9.2c-5.81,7.68-11.87,15.17-17.55,22.95
		c-2.44,3.33-4.45,3.96-8.06,1.52c-6.39-4.31-13.38-7.15-21.34-7.34c-25.21-0.6-42.08,19.57-38.02,45.75
		c1.08,6.95,3.58,13.45,7.47,19.37c15.36,23.35,47.48,22.93,63.48-0.71c2.15-3.18,2.46-8.74,6.7-9.11c3.6-0.31,7.48,2.23,11.19,3.62
		c6.53,2.43,12.95,5.17,19.56,7.33c4.86,1.59,4.88,3.94,2.97,8.09C1262.39,396.98,1235.45,410.59,1206.44,412.43z"/>
	<path class="st1" d="M1491.1,2699.98c-9.67-39.19-7.85-75.44,8.51-110.91c14.74,17.26,19.12,59.14,11.28,110.05
		c9.73-13.77,18.47-25.5,29.47-35.21c11.27-9.95,23.64-18.08,39.61-24.15c-10,32.2-30.17,54.48-55.37,73.4
		c16.85-2.01,33.27-2.5,49.59,1.52c7.12,1.75,14.01,3.98,21.96,8.17c-25.09,12.11-49.85,12.61-75.68,7.13
		c11.67,9.89,23.44,19.49,29.73,35.53c-20.6-5.88-34.79-18.05-46.63-35.11c-2.9,7.51-1.05,14.66-1.4,21.56
		c-0.35,6.85-0.08,13.74-0.08,22.73c-1.61-3.36-0.77-1.62-2.03-2.06c-0.23-0.08-0.61-0.27-0.61-0.41
		c-0.03-13.58-0.03-27.16-0.86-41.27c-12.54,15.5-26.4,28.62-46.22,34.14c2.38-10.58,2.55-10.79,28.8-35.64
		c-26.43,5.9-51.28,5.3-76.65-6.51c23.76-11.89,47.34-13.08,71.86-9.85c-25.11-18.83-45.05-41.12-54.84-71.56
		C1440.69,2644.31,1461.04,2661.32,1491.1,2699.98z"/>
	<path class="st1" d="M1857.78,2643.83c0.56-2.7-1.6-4.17-2.77-6.08c-17.6-28.77-26.83-59.77-24.82-93.73
		c0.09-1.54-0.5-3.35,2.25-5.28c27.52,26.64,40.68,59.99,46.26,97.58c7.61-29.13,19.73-55.58,43.93-76.78
		c2.69,16.97-1.46,31.75-6.04,46.43c-4.54,14.56-12.07,27.7-20.35,40.76c21.73-10.96,43.94-18.32,68.75-15.68
		c-7.08,13.64-28.33,23.99-68.39,33.46c8.34,2.41,15.98,4.23,22.74,8.15c6.43,3.74,13,7.45,18.89,14.51
		c-21.69,1.5-39.17-5.14-56.47-17.61c2.99,15.26,10.31,27.72,12.43,41.76c-6.58-12.28-10.41-25.68-16.62-41.07
		c-5.74,21.13-14.7,37.74-32.34,50.82c0.57-17.17,7.4-29.99,15.71-42.8c-7.71,3.01-14.53,7.92-22.3,10.7
		c-7.8,2.79-15.55,5.56-23.82,6.99c-8.52,1.47-16.92,1.91-27.63,1.25c18.44-20.4,41.06-28.49,66.57-34.14
		c-31.79-8.43-58.11-22.53-78.93-48.79c6.75-1.27,12.15-0.56,17.42,0.38c20.21,3.61,38.79,11.19,55.69,22.97
		c3.17,2.21,5.84,5.42,10.01,6.03L1857.78,2643.83z"/>
	<path class="st1" d="M1149.2,2663.18c23.57,5.85,45.58,14.17,64.1,34.01c-28.53,2.27-52.11-5.96-74.55-19.69
		c8.95,12.92,15.18,26.5,16.91,43.74c-18.09-12.5-26.9-29.22-32.53-49.87c-7.19,13.6-9.84,27.74-17,39.93
		c2.4-13.85,8.71-26.47,13.34-42.04c-17.89,12.49-35.51,19.53-57.85,18.18c12.42-12.66,26.11-18.54,43.14-23.07
		c-27.8-4.33-51.47-12.43-71.44-32.69c26.62-3.39,49.01,4.12,70.96,15.52c-17.36-26.18-28.5-54.04-27.4-88.21
		c24.86,21.87,37.36,48.08,44.63,77.86c5.51-37.46,18.72-71.05,47.58-99.25c2.63,20.13,0.67,38.18-4.24,56.07
		c-4.94,17.98-13.09,34.5-22.77,50.62c24.65-17.81,50.98-30.26,83.96-30.76C1205.48,2640.22,1179.21,2654.22,1149.2,2663.18z"/>
	<path class="st1" d="M626.07,611.79c-11,10.39-21.84,20.63-31.54,29.79c-8.6-7.72-16.89-15.19-25.22-22.61
		c-2.25-2-2.18-3.81,0.03-5.76c1.24-1.1,2.36-2.33,3.57-3.47c28.96-27.39,57.95-54.76,86.87-82.19c6.35-6.02,5.64-5.7,11.46,0.37
		c5.52,5.75,10.73,11.83,16.52,17.29c3.76,3.54,2.89,5.68-0.46,8.72c-8.36,7.59-16.32,15.63-24.72,23.17
		c-3.86,3.46-3.87,5.67-0.17,9.51c22.79,23.71,45.3,47.69,67.9,71.59c1.6,1.69,3.09,3.5,4.83,5.03c2.82,2.49,3.04,4.59,0.08,7.31
		c-8.31,7.64-16.48,15.45-24.59,23.3c-2.54,2.46-4.4,2.01-6.61-0.4c-5.17-5.62-10.5-11.1-15.75-16.65
		c-19.41-20.51-38.81-41.02-58.24-61.52C628.91,614.1,627.6,613.12,626.07,611.79z"/>
	<path class="st1" d="M2171,592.58c31.72-41.29,62.86-81.81,94.78-123.36c10.74,8.26,21.12,16.27,31.53,24.24
		c3.21,2.46,1.29,4.49-0.37,6.65c-6.69,8.68-13.35,17.38-20.02,26.07c-22.25,28.97-44.49,57.94-66.77,86.89
		c-4.57,5.94-4.7,5.96-10.71,1.41C2190.19,607.46,2181.05,600.32,2171,592.58z"/>
	<path class="st3" d="M1366.21,2406.13c5.39-0.1,10.31,0.34,15.04,2.21c3.14,1.24,5.95,2.91,8.21,5.45c3.56,4,5.41,10.63,3.54,12.65
		c-2.07,2.23-12.96,1.29-15.47-1.88c-5.35-6.74-12.27-5.31-19.14-4.27c-2.83,0.43-4.91,2.17-4.74,5.39c0.15,2.69,2,4.12,4.44,4.69
		c3.22,0.76,6.48,1.38,9.74,1.95c5.23,0.91,10.54,1.42,15.69,2.67c9.12,2.21,13.26,6.83,13.87,14.66
		c0.78,9.99-2.48,17.11-10.64,20.56c-12.78,5.4-25.89,5.4-38.77,0.17c-6.3-2.55-9.92-7.54-10.88-14.36
		c-0.46-3.32,0.72-5.14,4.26-4.89c4.94,0.34,9.99-1.51,13.67,4.8c3.19,5.45,17.97,6.19,23.08,2.5c3.34-2.42,3.32-6.01-0.36-7.87
		c-2.32-1.17-5.02-1.61-7.59-2.21c-6.78-1.59-13.68-2.75-20.35-4.73c-7.39-2.2-11.67-7.42-11.96-15.35
		c-0.31-8.29,2.54-15,10.31-18.88C1353.95,2406.47,1360.2,2405.87,1366.21,2406.13z"/>
	<path class="st4" d="M1281.89,2439.81c0-8.64,0.15-17.29-0.07-25.93c-0.11-4.39,0.82-6.84,5.96-6.75
		c12.96,0.24,25.93,0.25,38.89-0.01c5.37-0.11,5.73,2.79,5.81,6.91c0.08,4.3-0.59,6.92-5.89,6.67c-7.96-0.36-15.96,0.13-23.93-0.16
		c-5.01-0.18-5.11,2.7-5.14,6.35c-0.03,3.54,0.71,5.59,4.93,5.46c7.64-0.24,15.29,0.1,22.93-0.07c5.41-0.12,4.47,3.63,4.51,6.79
		c0.04,3.28,0.63,6.92-4.62,6.84c-7.64-0.11-15.29,0.17-22.93-0.04c-5.24-0.15-4.74,3.23-4.79,6.62c-0.05,3.51-0.15,6.67,4.91,6.56
		c8.31-0.18,16.62,0.19,24.93-0.06c5.25-0.16,5.81,2.62,5.8,6.85c-0.01,4.19-0.35,6.86-5.77,6.73c-13.29-0.34-26.59-0.22-39.88-0.05
		c-4.3,0.06-5.84-1.5-5.72-5.8C1282.06,2457.76,1281.89,2448.78,1281.89,2439.81z"/>
	<path class="st5" d="M1557,2438.93c-0.19-7.1,1.14-13.93,4.39-20.22c4.51-8.73,12.03-13.29,21.72-13.44
		c10.11-0.16,18.27,4.24,22.65,13.49c6.31,13.29,6.41,27.09,0.23,40.46c-4.28,9.27-12.18,13.79-22.42,13.8
		c-10.25,0-17.85-4.64-22.44-13.8C1557.98,2452.87,1556.74,2446.02,1557,2438.93z"/>
	<path class="st4" d="M1520.14,2458.41c10.14,0,18.38,0.28,26.59-0.1c5.48-0.25,5.73,2.71,5.72,6.81c-0.01,4.06-0.2,7.03-5.68,6.92
		c-13.27-0.28-26.54,0.01-39.81-0.14c-5.72-0.06-6.05-0.77-4.92-6.66c1.09-5.67,3.5-10.65,7.49-14.89c3.67-3.91,8-6.94,12.51-9.76
		c3.65-2.28,7.42-4.43,10.83-7.05c3.5-2.68,6.35-6.08,5.05-11c-0.74-2.81-2.89-4.39-5.83-4.65c-4.96-0.43-10.11-1.33-13.27,4.07
		c-0.98,1.68-1.2,4.27-3.25,4.75c-3.49,0.82-7.68,1.86-10.47-0.55c-2.43-2.1-0.35-5.58,0.7-8.24c2.36-5.95,6.91-9.72,12.97-11.4
		c5.47-1.52,11.03-1.8,16.73-0.59c7.39,1.57,13.18,5.07,15.14,12.61c2.12,8.13,1.15,15.79-5.73,21.81
		c-3.54,3.1-7.62,5.27-11.63,7.59C1529.01,2450.4,1524.6,2452.65,1520.14,2458.41z"/>
	<path class="st6" d="M1631.25,2458.42c9.72,0,18.02,0.25,26.29-0.09c4.94-0.2,5.48,2.4,5.19,6.16c-0.26,3.39,1.23,7.59-4.89,7.51
		c-14.91-0.19-29.82-0.06-44.85-0.06c-1.53-9.04,1.97-15.58,7.15-21.48c4.68-5.33,10.79-8.77,16.76-12.38
		c3.7-2.23,7.48-4.43,9.99-8.08c4.05-5.89,1.71-11.43-5.29-12.23c-5.04-0.58-9.9-0.52-12.77,5.18c-1.91,3.8-9.15,5.76-12.52,3.97
		c-1.8-0.96-1.8-2.71-1.4-4.32c1.15-4.58,3.09-8.72,6.79-11.91c8.34-7.2,26.14-7.39,34.46-0.28c8.03,6.85,8.36,20.46,0.74,28.63
		c-3.24,3.47-7.4,5.55-11.36,7.99C1640.86,2449.91,1635.44,2451.91,1631.25,2458.42z"/>
	<path class="st6" d="M1687.72,2458.41c8.76,0,16.94,0.3,25.08-0.11c5.33-0.27,6.03,2.32,5.83,6.6c-0.17,3.74,0.44,7.26-5.36,7.13
		c-13.29-0.3-26.59-0.27-39.87,0c-4.87,0.1-5.64-2.18-5.01-6.11c1.14-7.19,4.7-13.01,9.99-17.91c3.69-3.41,7.95-5.97,12.17-8.62
		c2.81-1.77,5.72-3.42,8.33-5.44c3.5-2.71,6.43-5.92,5.57-10.91c-0.61-3.55-3.24-4.87-6.41-5.21c-5.04-0.53-9.93-0.8-13.12,4.57
		c-2.59,4.34-7.95,6.08-12.19,4.64c-1.46-0.5-2.07-1.45-2.12-2.88c-0.01-0.33,0.02-0.67,0.09-0.99c1.49-7.29,5.16-13.21,12.3-15.76
		c10.15-3.62,20.44-3.82,29.27,3.36c6.33,5.15,6.97,12.59,5.22,20.1c-1.36,5.84-5.53,9.74-10.44,12.81
		c-4.22,2.63-8.63,4.98-12.85,7.61C1691.76,2452.8,1689.16,2454.29,1687.72,2458.41z"/>
	<path class="st7" d="M1417.92,2445.86c0-6.64-0.08-13.29,0.03-19.93c0.07-3.7-1.23-5.61-5.21-5.32c-2.64,0.19-5.31,0.08-7.97,0.01
		c-6.49-0.17-9.43-5.03-6.87-11.11c0.81-1.92,2.36-2.23,4-2.23c15.95-0.04,31.89-0.11,47.84,0.04c5.23,0.05,3.85,4.35,4.03,7.42
		c0.18,3.08,0.25,6.23-4.34,5.88c-0.66-0.05-1.33-0.01-1.99,0.01c-14.04,0.56-14.04,0.56-14.04,14.34c0,10.63-0.17,21.27,0.08,31.89
		c0.1,4.39-1.52,6.04-5.75,5.55c-1.31-0.15-2.67-0.14-3.98,0c-4.23,0.45-6.01-1.25-5.86-5.62c0.23-6.97,0.06-13.95,0.06-20.93
		C1417.94,2445.86,1417.93,2445.86,1417.92,2445.86z"/>
	<path class="st8" d="M1471.7,2464.73c-0.16,5.16-4.62,9.37-9.6,9.04c-5.06-0.33-9.17-5.05-8.75-10.02
		c0.39-4.55,4.65-8.48,9.27-8.54C1467.67,2455.14,1471.86,2459.54,1471.7,2464.73z"/>
	<path class="st9" d="M1694.12,1236.18c-0.24,5.73-3.76,10.98-7.48,16.11c-13.64,18.84-27.71,37.36-42.64,55.19
		c-96.25,114.93-204.5,216.96-327.17,303.4c-20.64,14.54-42.02,27.93-63.82,40.67c-13.66,7.99-29.19,10.74-43.86,15.89
		c-2.85,1-5.38,0.44-6.95-2.14c-1.7-2.78-0.03-5.09,1.75-7.16c9.94-11.6,19.8-23.28,29.89-34.75
		c77.54-88.17,159.71-171.77,247.18-250.12c48.52-43.46,98.34-85.34,152.47-121.79c11.57-7.79,23.49-15.02,35.61-21.92
		c5.02-2.86,10.24-4.81,16.1-4.21C1691.01,1225.94,1694.08,1229.42,1694.12,1236.18z"/>
	<path class="st9" d="M2178.67,1992.8c-11.15,0.15-18.25-8.22-17.01-20.09c0.97-9.26,3.18-18.29,6.41-27.05
		c6.7-18.17,16.09-34.91,27.04-50.83c1.52-2.21,3.23-4.08,5.46-5.68c39.38-28.3,76.85-59.07,115.33-88.54
		c25.83-19.78,51.42-39.87,78.08-58.54c2.72-1.9,5.54-3.65,8.22-5.61c7.64-5.58,15.26-5.74,22.98-0.19
		c7.96,5.72,11.93,13.4,10.38,23.17c-1.47,9.27-5.45,17.7-10.19,25.77c-12.17,20.72-27.21,39.27-43.28,57.01
		c-40.96,45.19-85.9,85.92-136.43,120.24c-15.11,10.26-30.8,19.58-48.09,25.87C2191.3,1990.61,2184.83,1991.92,2178.67,1992.8z"/>
	<path class="st9" d="M2765.1,1252.63c-0.62,4.03-3.27,7.86-6.11,11.55c-10.77,13.96-22.7,26.91-34.71,39.77
		c-59.66,63.89-122.08,125.05-185.04,185.66c-40.21,38.71-80.7,77.12-122.51,114.1c-7.21,6.38-14.71,12.43-22.14,18.57
		c-1.78,1.48-3.7,2.84-5.71,3.98c-2.31,1.31-4.81,2.61-7.29,0.23c-2.28-2.18-2.05-4.98-0.99-7.39c1.99-4.55,4.26-9,6.79-13.28
		c16.61-28.14,37.02-53.52,58.17-78.25c71.81-83.94,149.06-162.53,232.73-234.71c17.86-15.4,36.29-30.11,56.47-42.47
		c5.98-3.66,12.2-6.86,19.09-8.29C2761.02,1240.62,2765.84,1244.98,2765.1,1252.63z"/>
	<path class="st10" d="M2125.46,515.2c-4.22-0.39-8.29-1.87-12.02-4.05c-8.3-4.87-16.36-10.15-24.76-14.84
		c-4.44-2.48-4.36-4.88-1.71-8.6c4.02-5.66,5.81-14.85,11.54-16.77c5.99-2,11.95,5.55,17.87,8.97c6.86,3.96,14.19,7.43,19.3,13.86
		c3.35,4.22,4.44,8.81,1.87,13.9C2135.07,512.56,2131.12,515.05,2125.46,515.2z"/>
	<path class="st11" d="M2128.29,419.76c9.4,5.75,18.19,10.94,26.76,16.48c2.42,1.57,4.48,3.94,6.2,6.3c3,4.12,3.02,8.63,0.4,13.02
		c-2.59,4.34-6.38,6.5-11.55,6.16c-3.05-0.2-5.92-1.17-8.46-2.61c-8.04-4.55-15.88-9.47-23.9-14.05c-3.32-1.9-2.6-3.86-1-6.41
		C2120.43,432.81,2123.97,426.85,2128.29,419.76z"/>
	<path class="st12" d="M1377.18,273.11c7.56,14.79,13.97,27.32,20.37,39.85c-5.76,2.93-22.11,4.97-32.99,4.08
		C1368.58,303.06,1372.54,289.28,1377.18,273.11z"/>
	<path class="st11" d="M1935.96,393.03c10.78-11.17,20.49-21.25,30.2-31.32c0.68,0.22,1.36,0.44,2.04,0.65
		c0.2,14.14-0.28,28.28-0.41,43.62C1956.91,401.55,1947.23,397.61,1935.96,393.03z"/>
	<path class="st0" d="M1857.78,2643.83c0.71-0.32,1.63,0.26,1.39,0.55c-1.23,1.44-1.17,0.16-1.21-0.73
		C1857.96,2643.65,1857.78,2643.83,1857.78,2643.83z"/>
	<path class="st11" d="M1570.89,2439.15c-0.4-5.66,0.48-10.51,2.79-14.99c2.13-4.12,5.49-6.36,10.37-6.21
		c4.49,0.14,7.64,2.37,9.36,6.18c4.44,9.81,4.27,19.89,0.28,29.75c-1.7,4.2-5.14,6.65-10.08,6.65c-4.92,0-8.16-2.48-10.15-6.59
		C1571.11,2449.12,1570.32,2443.9,1570.89,2439.15z"/>
</g>
</svg>
